<?xml version="1.0" standalone="no"?>
<!DOCTYPE svg PUBLIC "-//W3C//DTD SVG 20010904//EN"
 "http://www.w3.org/TR/2001/REC-SVG-20010904/DTD/svg10.dtd">
<svg version="1.0" xmlns="http://www.w3.org/2000/svg"
 width="259.000000pt" height="194.000000pt" viewBox="0 0 259.000000 194.000000"
 preserveAspectRatio="xMidYMid meet">
<metadata>
Created by potrace 1.16, written by Peter Selinger 2001-2019
</metadata>
<g transform="translate(0.000000,194.000000) scale(0.100000,-0.100000)"
fill="#000000" stroke="none">
<path d="M1218 1663 l-97 -25 -27 21 c-15 12 -37 21 -50 21 -25 0 -310 -123
-501 -215 -62 -30 -117 -55 -121 -55 -5 0 -28 -14 -52 -31 -40 -29 -42 -33
-37 -72 4 -37 230 -543 396 -890 63 -132 74 -139 164 -101 191 80 228 93 285
104 98 17 179 1 433 -90 125 -44 236 -80 247 -80 44 0 60 34 193 405 188 528
209 593 209 645 0 62 -12 71 -145 117 -103 36 -109 40 -117 70 -11 43 -28 51
-155 68 -126 18 -133 20 -133 38 0 8 -9 22 -20 32 -18 16 -33 17 -145 12
l-125 -6 -29 30 c-35 35 -46 35 -173 2z m112 -63 c124 -16 133 -19 127 -44 -3
-11 -48 -142 -101 -290 -154 -428 -247 -708 -241 -727 8 -25 27 -38 92 -65
l58 -25 -60 7 c-33 4 -80 12 -105 18 -43 11 -45 12 -48 52 -3 38 63 593 108
914 25 184 20 179 170 160z m-174 -37 c-7 -38 -27 -190 -86 -652 -55 -443 -56
-436 15 -457 40 -12 39 -12 -36 -13 -56 -1 -80 3 -89 14 -15 18 -24 123 -49
580 -12 198 -23 392 -25 431 -7 114 -2 118 197 122 l79 2 -6 -27z m700 -79
c165 -58 318 -113 342 -121 28 -10 44 -22 47 -36 5 -19 -193 -607 -314 -936
-30 -83 -54 -121 -75 -121 -6 0 -166 55 -355 122 -252 90 -347 128 -357 143
-16 24 -3 66 174 560 191 533 174 495 218 495 12 0 156 -48 320 -106z m-987
-49 c1 -96 38 -761 50 -893 5 -51 14 -99 20 -105 6 -6 35 -14 64 -17 l52 -6
-40 -12 c-63 -18 -119 -24 -134 -13 -14 9 -51 142 -196 714 -104 410 -110 371
60 415 129 34 123 38 124 -83z m-240 -197 c106 -439 215 -838 233 -858 10 -11
31 -20 46 -21 25 -1 24 -2 -13 -20 -22 -10 -52 -19 -67 -19 -34 0 -26 -15
-270 520 -212 463 -216 474 -202 498 9 16 187 110 210 111 7 1 33 -89 63 -211z"/>
<path d="M1210 1576 c0 -8 4 -17 8 -20 12 -7 -3 -109 -16 -114 -7 -2 -12 -9
-12 -16 0 -17 151 -36 157 -20 2 7 -8 31 -23 53 -26 40 -26 42 -9 61 10 11 24
20 32 20 19 0 16 28 -4 34 -10 2 -44 7 -75 11 -48 5 -58 4 -58 -9z"/>
<path d="M1221 1345 c-22 -24 -41 -53 -41 -64 0 -23 25 -45 41 -35 8 5 10 2 6
-9 -3 -9 1 -18 9 -21 26 -10 36 -7 30 10 -5 12 -2 15 10 10 47 -18 58 53 18
114 -15 22 -28 40 -29 40 -1 0 -21 -20 -44 -45z"/>
<path d="M945 1545 c-29 -28 -33 -71 -10 -115 16 -30 46 -52 68 -49 6 1 20 -1
30 -6 32 -14 67 42 37 60 -6 4 -8 15 -5 25 8 25 -19 86 -43 99 -31 17 -51 13
-77 -14z"/>
<path d="M972 1328 c-43 -56 -42 -100 2 -108 17 -3 28 -9 25 -15 -2 -5 7 -12
20 -13 18 -3 22 0 18 11 -3 9 4 19 19 26 38 17 32 59 -14 104 l-38 37 -32 -42z"/>
<path d="M1500 1353 c-70 -46 -93 -94 -51 -108 11 -3 18 -12 15 -19 -6 -16 27
-31 35 -17 3 5 20 11 36 13 24 2 31 8 33 31 3 28 -25 117 -37 116 -3 0 -17 -7
-31 -16z"/>
<path d="M1740 1153 c-19 -13 -74 -44 -121 -68 -107 -54 -139 -89 -139 -152 0
-38 5 -50 34 -79 26 -26 42 -34 70 -34 20 0 36 -3 36 -7 0 -4 -16 -24 -36 -44
l-35 -36 28 -6 c15 -3 39 -10 53 -15 41 -16 44 -14 41 34 -1 26 1 44 6 42 77
-38 88 -41 127 -27 94 33 103 108 32 269 -25 58 -46 113 -46 122 0 27 -13 27
-50 1z"/>
<path d="M1880 658 c0 -8 -10 -14 -26 -13 -43 0 -51 -26 -29 -90 20 -61 20
-61 84 -20 46 28 55 66 22 87 -15 9 -17 15 -9 25 7 9 7 13 0 13 -6 0 -17 3
-26 6 -10 4 -16 1 -16 -8z"/>
<path d="M722 1240 c-29 -65 -16 -97 36 -91 6 1 12 -4 12 -12 0 -10 8 -13 25
-9 14 2 22 8 19 13 -3 5 4 18 17 28 17 13 20 24 15 44 -6 25 -68 77 -91 77 -5
0 -20 -23 -33 -50z"/>
<path d="M462 1368 c-26 -26 -11 -89 31 -135 25 -28 48 -29 70 -5 53 58 -47
194 -101 140z"/>
<path d="M506 1143 c-9 -26 -16 -52 -16 -59 0 -23 32 -46 56 -40 18 5 24 2 24
-9 0 -13 4 -14 21 -5 11 6 18 17 16 23 -2 6 5 19 16 27 28 23 6 61 -49 88 -25
12 -46 22 -48 22 -2 0 -11 -21 -20 -47z"/>
</g>
</svg>
