<?xml version="1.0" standalone="no"?>
<!DOCTYPE svg PUBLIC "-//W3C//DTD SVG 20010904//EN"
 "http://www.w3.org/TR/2001/REC-SVG-20010904/DTD/svg10.dtd">
<svg version="1.0" xmlns="http://www.w3.org/2000/svg"
 width="225.000000pt" height="225.000000pt" viewBox="0 0 225.000000 225.000000"
 preserveAspectRatio="xMidYMid meet">
<metadata>
Created by potrace 1.16, written by Peter Selinger 2001-2019
</metadata>
<g transform="translate(0.000000,225.000000) scale(0.100000,-0.100000)"
fill="#000000" stroke="none">
<path d="M400 2108 c0 -2 45 -124 99 -271 l98 -268 216 266 c120 146 217 267
217 270 0 3 -142 5 -315 5 -173 0 -315 -1 -315 -2z"/>
<path d="M1222 2102 c10 -27 423 -521 429 -515 7 7 135 344 180 471 l18 52
-315 0 c-174 0 -314 -4 -312 -8z"/>
<path d="M901 1808 l-222 -273 226 -3 c125 -1 325 -1 446 0 l220 3 -211 260
c-116 143 -217 266 -224 273 -11 11 -52 -35 -235 -260z"/>
<path d="M163 1789 l-162 -259 261 0 c244 0 260 1 253 18 -4 9 -45 123 -92
252 -47 129 -89 238 -92 242 -3 4 -79 -110 -168 -253z"/>
<path d="M1909 2024 c-38 -99 -179 -483 -179 -488 0 -3 117 -6 259 -6 l260 0
-161 258 c-88 141 -162 259 -164 261 -2 2 -8 -9 -15 -25z"/>
<path d="M22 1441 c4 -12 962 -1200 965 -1197 2 1 -96 272 -216 602 l-219 599
-267 3 c-156 1 -265 -1 -263 -7z"/>
<path d="M663 1388 c13 -35 120 -327 238 -650 118 -323 217 -584 220 -580 6 8
479 1276 479 1286 0 3 -216 6 -480 6 l-480 0 23 -62z"/>
<path d="M1463 828 c-127 -343 -231 -623 -230 -624 3 -2 992 1227 995 1237 2
5 -113 9 -265 9 l-268 0 -232 -622z"/>
</g>
</svg>
