<?xml version="1.0" standalone="no"?>
<!DOCTYPE svg PUBLIC "-//W3C//DTD SVG 20010904//EN"
 "http://www.w3.org/TR/2001/REC-SVG-20010904/DTD/svg10.dtd">
<svg version="1.0" xmlns="http://www.w3.org/2000/svg"
 width="200.000000pt" height="200.000000pt" viewBox="0 0 200.000000 200.000000"
 preserveAspectRatio="xMidYMid meet">
<metadata>
Created by potrace 1.16, written by Peter Selinger 2001-2019
</metadata>
<g transform="translate(0.000000,200.000000) scale(0.100000,-0.100000)"
fill="#000000" stroke="none">
<path d="M850 1736 c-295 -63 -530 -301 -586 -594 -92 -481 297 -922 784 -889
110 8 187 28 282 75 208 102 363 304 406 530 73 383 -166 766 -541 867 -82 23
-263 28 -345 11z m246 -33 l49 -7 -40 -7 c-22 -5 -62 -8 -89 -8 -39 -1 -305
-56 -363 -76 -7 -2 -13 -1 -13 4 0 19 159 76 260 94 43 7 145 7 196 0z m-142
-105 c11 -94 12 -91 -86 -175 -51 -42 -95 -80 -98 -84 -5 -7 -188 -29 -239
-29 -27 0 -29 3 -36 57 l-7 56 81 81 81 81 127 31 c177 44 169 45 177 -18z
m185 -160 l134 -43 35 -129 35 -129 -74 -71 c-41 -39 -88 -84 -105 -99 l-31
-28 -133 50 c-73 27 -136 53 -140 58 -11 11 -82 261 -78 273 7 21 194 169 208
165 8 -3 75 -24 149 -47z m402 20 c10 -13 34 -45 53 -73 34 -49 36 -54 45
-185 l9 -135 -42 -43 -42 -43 -101 80 -100 81 -32 116 c-18 63 -34 121 -37
129 -3 7 19 32 53 59 57 46 59 46 116 41 45 -4 63 -10 78 -27z m-1063 -104
c10 -57 8 -69 -32 -208 -38 -130 -48 -152 -82 -187 -21 -21 -46 -39 -56 -39
-16 0 -18 9 -18 70 0 138 46 295 117 398 43 64 56 58 71 -34z m1227 -429 c-20
-171 -126 -385 -190 -385 -21 0 -24 5 -30 70 -7 65 -4 78 40 210 42 125 52
146 89 180 l41 39 28 -32 c25 -29 27 -37 22 -82z m-710 46 l130 -48 22 -109
c12 -60 24 -123 28 -141 5 -30 1 -36 -95 -118 l-100 -87 -142 44 -143 44 -42
130 c-24 71 -43 134 -42 139 0 15 221 194 239 194 8 1 74 -21 145 -48z m-491
-74 l85 -78 41 -124 c22 -68 40 -131 40 -138 0 -16 -77 -90 -88 -85 -81 38
-107 55 -141 95 -23 27 -57 80 -76 118 -32 67 -33 73 -27 150 6 69 11 84 36
113 17 18 33 31 37 30 4 -2 46 -38 93 -81z m956 -244 c0 -5 5 -35 10 -68 9
-56 8 -61 -13 -80 -102 -92 -175 -154 -192 -163 -11 -6 -48 -18 -83 -26 -59
-16 -63 -16 -101 3 -31 16 -43 31 -61 76 -27 65 -31 57 90 160 l86 73 105 15
c123 17 159 20 159 10z"/>
</g>
</svg>
