<?xml version="1.0" standalone="no"?>
<!DOCTYPE svg PUBLIC "-//W3C//DTD SVG 20010904//EN"
 "http://www.w3.org/TR/2001/REC-SVG-20010904/DTD/svg10.dtd">
<svg version="1.0" xmlns="http://www.w3.org/2000/svg"
 width="200.000000pt" height="200.000000pt" viewBox="0 0 200.000000 200.000000"
 preserveAspectRatio="xMidYMid meet">
<metadata>
Created by potrace 1.16, written by Peter Selinger 2001-2019
</metadata>
<g transform="translate(0.000000,200.000000) scale(0.100000,-0.100000)"
fill="#000000" stroke="none">
<path d="M832 1986 c-219 -42 -385 -129 -537 -281 -130 -129 -215 -277 -263
-454 -22 -84 -25 -116 -25 -251 0 -135 3 -167 25 -251 48 -177 133 -325 263
-454 337 -337 852 -390 1253 -129 529 345 605 1092 157 1539 -130 131 -279
216 -454 262 -120 31 -310 39 -419 19z m327 -67 c36 -6 69 -14 73 -18 4 -4 3
-24 -3 -45 -10 -37 -11 -38 -47 -32 -20 4 -70 9 -109 13 l-73 6 0 43 0 44 47
0 c25 0 76 -5 112 -11z m-390 -56 c6 -21 11 -41 11 -44 0 -3 -19 -12 -42 -19
-24 -7 -69 -25 -101 -41 l-57 -29 -20 32 c-11 18 -19 37 -17 42 5 16 174 93
209 95 4 1 12 -16 17 -36z m775 -107 c33 -24 72 -56 85 -70 l25 -26 -28 -29
-28 -29 -87 66 -88 66 20 33 c10 18 24 33 29 33 6 0 38 -20 72 -44z m-369 -2
c176 -40 346 -153 451 -301 97 -135 144 -283 144 -453 0 -170 -47 -318 -144
-453 -105 -149 -275 -261 -453 -301 -93 -21 -253 -21 -346 0 -233 52 -430 214
-531 436 -49 107 -67 192 -67 318 0 126 18 211 67 318 155 340 514 517 879
436z m-804 -130 l27 -26 -66 -87 -66 -88 -33 20 c-18 10 -33 23 -33 29 0 21
122 178 138 178 3 0 18 -12 33 -26z m1465 -216 c22 -43 64 -151 64 -164 0 -3
-70 -24 -81 -24 -3 0 -12 19 -19 43 -7 23 -25 68 -41 100 l-29 57 32 20 c18
11 36 20 40 20 4 0 20 -24 34 -52z m-1678 -183 c21 -6 23 -12 18 -38 -3 -18
-9 -67 -12 -109 l-7 -78 -43 0 -44 0 0 48 c0 44 15 149 25 180 3 7 13 11 22 8
10 -2 29 -7 41 -11z m1772 -272 c0 -52 -18 -163 -29 -181 -5 -8 -17 -9 -45 -1
-37 10 -38 11 -32 47 4 20 9 70 13 110 l6 72 43 0 44 0 0 -47z m-1730 -215 c7
-24 25 -69 41 -101 l29 -57 -32 -20 c-18 -11 -36 -20 -39 -20 -11 0 -35 43
-61 110 -44 110 -43 108 -6 119 52 15 54 14 68 -31z m1600 -210 c0 -15 -82
-128 -114 -158 l-27 -24 -29 30 -30 29 41 50 c23 28 53 67 66 87 l25 36 34
-20 c19 -11 34 -25 34 -30z m-1308 -197 l85 -65 -19 -33 c-11 -18 -24 -33 -30
-33 -14 0 -97 59 -146 104 l-43 39 28 29 c15 15 30 27 33 26 3 -2 44 -32 92
-67z m948 -93 c11 -18 20 -36 20 -40 0 -14 -187 -98 -216 -98 -5 0 -26 82 -22
85 2 1 26 10 53 19 28 9 70 28 95 41 25 13 46 24 48 25 1 0 11 -15 22 -32z
m-512 -75 l72 -6 0 -43 0 -44 -47 0 c-52 0 -163 18 -181 29 -8 5 -9 17 -1 45
10 37 11 38 47 32 20 -4 70 -9 110 -13z"/>
<path d="M852 1635 c-240 -54 -437 -256 -489 -499 -20 -96 -13 -249 17 -336
66 -198 225 -355 425 -422 58 -19 91 -23 195 -23 104 0 137 4 195 23 201 67
360 226 427 427 33 101 33 289 0 390 -66 200 -223 359 -422 426 -84 28 -257
35 -348 14z m291 -70 c204 -53 369 -218 421 -421 9 -34 16 -80 16 -103 l0 -41
-290 0 -290 0 0 -290 0 -290 -41 0 c-174 0 -396 145 -477 313 -38 80 -62 165
-62 224 l0 43 290 0 290 0 0 290 0 290 43 0 c23 0 68 -7 100 -15z m-354 -171
c25 -32 26 -52 5 -83 -16 -23 -16 -23 13 -17 63 14 110 -68 66 -116 -25 -28
-77 -24 -102 8 -25 32 -29 12 -7 -41 l15 -35 -40 0 c-21 0 -39 2 -39 4 0 2 7
23 15 46 20 56 19 57 -10 26 -46 -49 -125 -22 -125 43 0 40 44 75 83 67 25 -5
26 -4 17 14 -5 10 -10 32 -10 49 0 59 81 83 119 35z m594 -691 c22 -42 21 -65
-4 -97 -26 -33 -55 -33 -89 -1 l-26 25 -24 -25 c-30 -32 -73 -33 -94 -3 -27
38 -19 80 25 149 23 35 53 81 66 102 l24 37 53 -77 c29 -43 60 -92 69 -110z"/>
<path d="M1213 1352 c-58 -67 -73 -92 -73 -124 0 -44 45 -62 91 -38 22 12 24
3 10 -48 -9 -31 -9 -32 20 -32 29 0 30 2 24 33 -4 17 -9 41 -12 52 -5 19 -5
19 14 3 20 -18 59 -23 79 -10 38 25 15 90 -62 176 l-41 46 -50 -58z"/>
<path d="M718 858 c-9 -18 -34 -54 -56 -79 l-41 -46 30 -29 c17 -16 43 -51 59
-77 l27 -48 12 29 c7 16 31 51 55 78 l43 49 -37 45 c-21 25 -45 60 -54 78 -9
17 -18 32 -19 32 -2 0 -10 -15 -19 -32z"/>
</g>
</svg>
