<?xml version="1.0" standalone="no"?>
<!DOCTYPE svg PUBLIC "-//W3C//DTD SVG 20010904//EN"
 "http://www.w3.org/TR/2001/REC-SVG-20010904/DTD/svg10.dtd">
<svg version="1.0" xmlns="http://www.w3.org/2000/svg"
 width="224.000000pt" height="225.000000pt" viewBox="0 0 224.000000 225.000000"
 preserveAspectRatio="xMidYMid meet">
<metadata>
Created by potrace 1.16, written by Peter Selinger 2001-2019
</metadata>
<g transform="translate(0.000000,225.000000) scale(0.100000,-0.100000)"
fill="#000000" stroke="none">
<path d="M787 2103 c-273 -81 -496 -150 -495 -154 3 -7 848 -683 877 -701 16
-10 103 17 525 163 278 96 506 177 506 181 0 9 -879 650 -898 654 -9 2 -241
-63 -515 -143z m508 38 c85 -38 109 -91 59 -130 -21 -16 -41 -21 -91 -21 -72
0 -125 18 -165 57 -46 44 -36 85 28 109 47 17 109 12 169 -15z m-547 -173 c56
-28 87 -67 77 -97 -26 -82 -255 -58 -301 31 -43 84 103 127 224 66z m847 -44
c114 -54 87 -148 -44 -147 -148 2 -261 119 -154 161 15 6 37 12 48 14 31 6
111 -9 150 -28z m-592 -165 c21 -5 53 -24 72 -41 71 -62 29 -121 -86 -121 -68
0 -164 42 -181 78 -14 32 -3 69 24 83 30 14 123 15 171 1z m868 -43 c46 -19
89 -63 89 -91 0 -36 -35 -58 -98 -63 -74 -5 -134 11 -177 49 -78 69 -23 135
101 124 28 -3 67 -11 85 -19z m-551 -191 c114 -57 106 -139 -14 -152 -58 -7
-146 20 -185 56 -69 65 -18 126 99 118 36 -2 81 -12 100 -22z"/>
<path d="M113 1333 c-104 -523 -110 -559 -95 -577 19 -21 841 -730 851 -734 4
-1 62 253 130 565 68 313 126 573 128 580 4 11 -876 723 -894 723 -5 0 -58
-251 -120 -557z m234 340 c12 -8 34 -39 49 -69 22 -46 26 -64 22 -116 -4 -51
-9 -65 -32 -85 -15 -12 -35 -23 -44 -23 -61 0 -132 104 -132 192 0 107 60 151
137 101z m572 -471 c60 -63 80 -176 42 -238 -23 -37 -48 -46 -88 -29 -90 38
-136 213 -73 280 35 38 75 33 119 -13z m-371 -117 c63 -53 93 -178 59 -245
-30 -59 -94 -56 -146 7 -105 128 -29 336 87 238z m-334 -140 c42 -41 71 -129
62 -184 -18 -112 -121 -121 -178 -14 -61 113 -36 233 48 233 25 0 42 -9 68
-35z m527 -448 c114 -77 115 -297 1 -297 -39 0 -98 67 -117 132 -20 71 -12
123 26 160 33 34 46 35 90 5z"/>
<path d="M1717 1340 c-279 -97 -509 -179 -512 -181 -3 -4 -255 -1143 -255
-1155 0 -4 29 6 580 211 234 87 430 163 437 169 6 6 68 256 137 556 70 300
129 553 132 563 3 9 2 16 -3 16 -4 -1 -236 -81 -516 -179z m400 -26 c21 -21
24 -32 20 -60 -9 -56 -54 -123 -105 -155 -59 -37 -103 -38 -131 -3 -24 30 -25
36 -11 85 20 70 121 158 183 159 10 0 29 -12 44 -26z m-374 -466 c32 -38 15
-105 -43 -172 -40 -45 -78 -66 -122 -66 -41 0 -54 8 -67 42 -25 67 58 192 146
218 36 10 64 3 86 -22z m-413 -468 c29 -29 25 -76 -11 -138 -70 -123 -219
-152 -219 -42 0 53 13 82 57 131 61 68 134 88 173 49z"/>
</g>
</svg>
