<?xml version="1.0" standalone="no"?>
<!DOCTYPE svg PUBLIC "-//W3C//DTD SVG 20010904//EN"
 "http://www.w3.org/TR/2001/REC-SVG-20010904/DTD/svg10.dtd">
<svg version="1.0" xmlns="http://www.w3.org/2000/svg"
 width="253.000000pt" height="199.000000pt" viewBox="0 0 253.000000 199.000000"
 preserveAspectRatio="xMidYMid meet">
<metadata>
Created by potrace 1.16, written by Peter Selinger 2001-2019
</metadata>
<g transform="translate(0.000000,199.000000) scale(0.100000,-0.100000)"
fill="#000000" stroke="none">
<path d="M1115 1974 c-132 -15 -415 -85 -415 -104 0 -4 17 -12 39 -18 32 -10
47 -9 96 8 32 11 60 20 61 20 2 0 13 -18 24 -40 17 -34 18 -40 5 -40 -8 0 -15
-4 -15 -10 0 -18 66 -21 138 -6 40 9 84 16 97 16 23 0 23 0 -6 -29 -19 -20
-29 -40 -29 -60 0 -17 -3 -31 -6 -31 -17 0 -198 59 -343 112 -107 39 -167 56
-173 50 -11 -11 6 -22 252 -175 153 -94 180 -117 180 -149 0 -35 -78 -138
-248 -326 -81 -89 -84 -93 -68 -111 17 -19 21 -17 119 60 126 98 244 177 337
226 129 68 213 57 629 -79 170 -56 215 -67 222 -56 5 7 9 15 9 18 0 3 -48 29
-107 59 -150 74 -353 196 -397 238 -20 19 -36 43 -36 53 0 28 89 154 184 260
74 83 82 96 67 107 -13 9 -20 7 -41 -12 -37 -34 -271 -205 -281 -205 -5 0 -9
5 -9 10 0 6 -15 20 -32 31 l-33 21 41 -5 c30 -3 47 0 65 14 21 16 21 19 6 19
-16 0 -17 5 -12 33 10 45 16 49 65 38 45 -10 66 -4 89 22 10 12 -1 16 -66 26
-83 13 -341 22 -408 15z m229 -218 c34 -22 34 -58 0 -85 -38 -30 -131 -29
-168 0 -86 68 73 148 168 85z m-114 -145 c33 -7 96 0 131 14 10 4 19 -3 27
-20 19 -41 14 -61 -18 -89 -56 -47 -161 -45 -224 5 -29 22 -32 44 -14 84 10
22 16 25 37 19 14 -4 42 -10 61 -13z"/>
<path d="M1705 1829 c-33 -38 -61 -73 -63 -78 -2 -5 16 -16 40 -26 99 -39 223
-132 300 -223 53 -63 105 -167 124 -250 21 -87 14 -224 -15 -305 -83 -236
-317 -416 -621 -479 -128 -27 -345 -22 -470 11 -105 28 -232 86 -315 146 -130
92 -237 247 -265 381 -15 71 -8 234 11 289 12 33 19 40 39 37 13 -1 25 -4 27
-6 3 -2 -4 -30 -13 -62 -48 -163 8 -376 134 -507 93 -97 263 -190 418 -229
126 -31 332 -31 458 0 212 53 406 181 490 325 60 102 93 240 78 328 l-8 44
-13 -33 c-8 -20 -19 -31 -27 -28 -9 3 -14 -11 -19 -52 -11 -102 -45 -189 -107
-276 -3 -5 -30 11 -60 36 -29 24 -126 104 -215 177 l-163 132 20 39 c11 22 24
40 28 40 4 0 66 -7 137 -15 180 -20 184 -19 65 20 -58 19 -124 35 -147 35 -23
0 -48 7 -57 15 -22 22 -33 18 -41 -12 -10 -44 -32 -71 -75 -93 -88 -45 -193
-34 -260 27 -33 29 -39 31 -56 19 -18 -14 -18 -16 14 -55 17 -22 32 -42 32
-45 0 -4 -79 -99 -176 -214 -97 -114 -178 -208 -179 -210 -2 -2 -31 25 -66 60
-66 65 -120 153 -137 223 -25 101 -30 91 47 110 53 14 74 25 94 50 l25 31 -87
-23 c-47 -13 -89 -23 -93 -23 -9 0 -1 50 18 111 l14 45 60 -4 c67 -5 110 14
110 48 0 11 -16 38 -36 60 -36 40 -36 41 -18 61 22 25 39 23 147 -17 72 -26
79 -27 94 -11 9 9 15 18 12 20 -2 3 -44 18 -94 34 l-90 30 53 33 c29 18 52 33
50 34 -2 1 -15 10 -30 19 -26 16 -27 15 -98 -34 -68 -48 -72 -50 -85 -32 -8
10 -15 21 -15 25 0 4 25 24 55 45 30 21 54 41 55 44 0 5 -169 118 -192 127
-12 5 -167 -99 -233 -157 -275 -242 -378 -583 -270 -901 114 -335 462 -605
894 -695 617 -128 1275 132 1504 596 59 122 81 215 81 354 0 131 -14 198 -63
315 -62 149 -201 313 -354 418 -70 48 -274 153 -322 165 -15 4 -34 -11 -80
-64z m438 -255 c20 -23 37 -44 37 -46 0 -7 -101 -51 -105 -46 -2 2 -21 25 -44
52 l-40 50 41 27 c47 32 51 30 111 -37z m-1552 -10 c23 -21 38 -73 32 -108 -3
-14 -21 -39 -40 -56 -103 -91 -244 50 -153 154 43 48 114 53 161 10z m1692
-216 c32 -90 33 -86 -20 -93 -26 -3 -56 -8 -65 -9 -13 -3 -21 8 -32 48 -21 72
-22 70 26 83 69 18 74 17 91 -29z m-1934 -104 c2 -1 0 -30 -4 -63 l-7 -61 -70
0 -70 0 7 53 c11 92 9 89 78 81 34 -4 64 -8 66 -10z m1501 -444 c0 -12 -77
-73 -135 -107 -73 -43 -177 -82 -255 -97 l-69 -13 -5 26 c-8 40 -66 471 -66
489 0 11 19 25 48 38 l47 20 218 -174 c119 -96 217 -178 217 -182z m-599 316
l25 -5 32 -258 c18 -142 32 -261 32 -265 0 -17 -205 -8 -290 12 -81 20 -250
92 -250 108 0 4 81 102 180 219 l179 211 33 -8 c18 -5 45 -11 59 -14z m1069
-35 c0 -21 -3 -53 -6 -70 -7 -31 -7 -32 -53 -26 -94 12 -89 7 -78 75 l10 60
63 0 64 0 0 -39z m-1949 -140 c10 -29 17 -57 14 -61 -2 -3 -30 -12 -61 -19
-47 -11 -58 -11 -65 0 -12 19 -40 111 -35 116 6 6 98 21 115 19 8 0 22 -25 32
-55z m1830 -77 c30 -9 56 -18 58 -19 5 -6 -69 -125 -78 -125 -8 0 -102 39
-109 46 -5 4 61 114 69 114 3 0 30 -7 60 -16z m-1698 -148 l47 -54 -49 -30
-48 -30 -54 54 c-29 29 -50 56 -46 60 3 4 28 17 54 29 26 13 48 24 49 24 0 1
21 -23 47 -53z m1565 -117 c-2 -5 -30 -29 -62 -53 l-60 -45 -40 37 c-23 20
-40 38 -39 39 2 2 26 23 55 46 l53 43 48 -29 c26 -16 47 -33 45 -38z m-1300
-81 c28 -14 28 -17 -7 -58 l-29 -35 -61 30 c-87 41 -90 47 -44 88 l38 35 40
-24 c22 -14 50 -30 63 -36z m996 -51 c36 -48 44 -39 -72 -83 l-62 -24 -22 45
c-12 24 -20 46 -17 48 9 8 115 45 131 46 9 0 28 -14 42 -32z m-740 -31 c37 -8
70 -17 73 -19 9 -10 -10 -79 -23 -84 -19 -7 -164 26 -164 37 0 14 33 80 39 80
3 0 37 -6 75 -14z m424 -111 c-2 -2 -43 -5 -93 -7 l-90 -3 -3 42 c-3 40 -2 42
30 47 18 3 56 7 83 8 l50 3 13 -43 c8 -24 12 -45 10 -47z"/>
<path d="M1571 1676 l-22 -23 62 -23 c62 -24 62 -24 39 -39 -13 -9 -33 -23
-44 -32 -20 -16 -20 -16 3 -28 19 -11 28 -9 62 13 21 14 44 26 51 26 36 0 218
-184 218 -221 0 -10 80 -53 87 -46 2 3 -9 32 -26 65 -55 108 -172 217 -309
286 -92 46 -97 47 -121 22z"/>
<path d="M1280 1363 c-58 -20 -150 -68 -147 -77 2 -6 21 -21 43 -33 90 -52
234 -5 234 75 0 16 -9 22 -42 27 -24 3 -50 8 -58 10 -8 2 -22 1 -30 -2z"/>
</g>
</svg>
