<?xml version="1.0" standalone="no"?>
<!DOCTYPE svg PUBLIC "-//W3C//DTD SVG 20010904//EN"
 "http://www.w3.org/TR/2001/REC-SVG-20010904/DTD/svg10.dtd">
<svg version="1.0" xmlns="http://www.w3.org/2000/svg"
 width="225.000000pt" height="225.000000pt" viewBox="0 0 225.000000 225.000000"
 preserveAspectRatio="xMidYMid meet">
<metadata>
Created by potrace 1.16, written by Peter Selinger 2001-2019
</metadata>
<g transform="translate(0.000000,225.000000) scale(0.100000,-0.100000)"
fill="#000000" stroke="none">
<path d="M166 2134 c-9 -24 -7 -1457 2 -1472 7 -10 165 -12 758 -10 l749 3 0
745 0 745 -751 3 c-679 2 -752 1 -758 -14z m1402 -86 c17 -17 17 -389 0 -406
-9 -9 -167 -12 -649 -12 -572 0 -637 2 -643 16 -3 9 -6 103 -6 209 0 145 3
195 13 198 6 3 296 6 642 6 478 1 634 -2 643 -11z m0 -524 c50 -35 52 -51 52
-379 0 -328 -4 -355 -51 -389 -21 -14 -86 -16 -641 -16 -457 0 -624 3 -643 12
-53 24 -55 40 -55 387 0 179 4 331 10 345 21 56 11 55 685 56 547 0 623 -2
643 -16z"/>
<path d="M340 1845 l0 -145 585 0 585 0 0 145 0 145 -585 0 -585 0 0 -145z
m245 55 c6 -27 10 -30 48 -30 l42 0 -32 -25 c-29 -23 -31 -28 -22 -58 14 -48
12 -50 -24 -23 l-33 25 -32 -25 c-34 -27 -38 -22 -21 23 9 25 7 31 -22 56
l-33 27 41 0 c39 0 42 2 53 35 13 40 25 38 35 -5z m353 8 c7 -30 12 -33 53
-38 l44 -5 -32 -20 c-37 -22 -37 -23 -23 -61 14 -36 8 -40 -29 -18 -30 18 -31
18 -61 -4 -33 -25 -34 -23 -21 25 9 30 7 35 -22 55 l-32 23 40 5 c35 4 41 9
50 38 5 17 13 32 17 32 4 0 11 -15 16 -32z m358 0 c8 -29 15 -34 49 -38 l40
-5 -30 -21 c-27 -21 -28 -24 -18 -58 9 -28 8 -36 -2 -36 -7 0 -18 7 -25 15
-17 21 -37 19 -73 -7 -29 -21 -30 -21 -23 -2 20 52 18 69 -14 89 l-30 20 42 5
c38 4 43 9 52 38 5 17 12 32 16 32 4 0 11 -15 16 -32z"/>
<path d="M305 1457 c-3 -7 -4 -154 -3 -327 l3 -315 609 -3 c441 -1 613 1 622
9 19 16 21 618 2 637 -18 18 -1227 17 -1233 -1z m379 -63 c14 -5 16 -37 16
-254 0 -217 -2 -249 -16 -254 -31 -12 -319 -7 -332 6 -17 17 -17 479 0 496 13
13 301 18 332 6z m414 -248 c2 -193 -1 -251 -10 -258 -21 -13 -322 -10 -336 4
-17 17 -17 479 0 496 9 9 58 12 178 10 l165 -3 3 -249z m397 -6 l0 -255 -165
-3 c-146 -2 -166 -1 -177 15 -17 22 -18 454 -3 484 10 18 21 19 178 17 l167
-3 0 -255z"/>
<path d="M410 1140 l0 -190 110 0 110 0 0 190 0 190 -110 0 -110 0 0 -190z
m190 95 c17 -21 -70 -205 -98 -205 -41 0 -46 25 -18 86 31 67 31 64 7 64 -34
0 -51 12 -51 34 0 33 7 36 80 36 47 0 71 -4 80 -15z"/>
<path d="M810 1140 l0 -190 113 0 112 0 -3 190 -3 190 -109 0 -110 0 0 -190z
m191 94 c11 -13 6 -30 -34 -110 -41 -82 -51 -95 -70 -92 -30 4 -33 31 -8 88
26 61 26 58 -5 62 -31 3 -50 28 -41 52 9 23 139 23 158 0z"/>
<path d="M1210 1140 l0 -190 115 0 115 0 -2 190 -3 190 -112 0 -113 0 0 -190z
m192 90 c7 -11 -3 -41 -34 -105 -37 -78 -46 -90 -68 -90 -35 0 -37 32 -5 94
l25 51 -29 0 c-35 0 -55 22 -46 50 6 19 13 21 77 18 50 -2 74 -7 80 -18z"/>
<path d="M1943 1843 c-67 -14 -97 -124 -48 -177 13 -14 29 -26 35 -26 7 0 10
-82 10 -250 0 -160 -4 -250 -10 -250 -6 0 -10 -48 -10 -125 l0 -125 60 0 60 0
0 125 c0 104 -2 125 -15 125 -13 0 -15 34 -15 244 l0 245 29 20 c102 73 29
221 -96 194z"/>
<path d="M1750 1015 l0 -195 50 0 50 0 0 195 0 195 -50 0 -50 0 0 -195z"/>
<path d="M172 568 c-8 -8 -12 -47 -12 -110 0 -86 2 -98 20 -108 23 -12 1468
-14 1488 -1 9 6 12 36 10 117 l-3 109 -745 3 c-572 2 -749 -1 -758 -10z"/>
<path d="M259 268 c-18 -7 -20 -16 -17 -85 l3 -78 674 -3 c533 -2 676 0 683
10 10 17 10 129 -1 147 -7 11 -123 13 -665 15 -362 0 -666 -2 -677 -6z m1065
-54 c19 -7 21 -35 4 -52 -9 -9 -114 -12 -410 -12 -365 0 -398 1 -407 17 -6 11
-6 24 0 35 9 17 37 18 404 18 216 0 400 -3 409 -6z"/>
</g>
</svg>
